<?xml version="1.0" encoding="utf-8"?>
<!-- Generator: Adobe Illustrator 19.0.0, SVG Export Plug-In . SVG Version: 6.00 Build 0)  -->
<svg version="1.1" id="Layer_1" xmlns="http://www.w3.org/2000/svg" xmlns:xlink="http://www.w3.org/1999/xlink" x="0px" y="0px"
	 viewBox="0 0 96 96" style="enable-background:new 0 0 96 96;" xml:space="preserve">
<style type="text/css">
	.st0{fill:#333333;}
</style>
<g id="XMLID_1_">
	<path id="XMLID_3_" class="st0" d="M48,39.9c0,1.5,1.2,2.7,2.7,2.7h13.5c1.5,0,2.7-1.2,2.7-2.7V18.2c0-1.5-1.2-2.7-2.7-2.7H50.7
		c-1.5,0-2.7,1.2-2.7,2.7v8.1H20.9v5.4H48V39.9z"/>
	<path id="XMLID_4_" class="st0" d="M39.9,48H23.6c-1,0-1.9,0.6-2.4,1.4c-0.5,0.9-0.4,1.9,0.1,2.8l5.4,8.1c0.4,0.6,1.1,1,1.8,1.2
		l11.3,1.9V48z"/>
	<path id="XMLID_5_" class="st0" d="M73.4,58.6c1-0.4,1.7-1.4,1.7-2.5V48c0-1.5-1.2-2.7-2.7-2.7H45.3c-1.5,0-2.7,1.2-2.7,2.7v17.3
		L33.2,70c-0.9,0.5-1.5,1.4-1.5,2.4v5.4c0,1.5,1.2,2.7,2.7,2.7h37.9c1.5,0,2.7-1.2,2.7-2.7v-5.4c0-1.1-0.7-2.1-1.7-2.5l-11.8-4.7
		v-1.7L73.4,58.6z"/>
</g>
</svg>
